<svg width="140" height="140" viewBox="0 0 140 140" fill="none" xmlns="http://www.w3.org/2000/svg">
<path d="M27 50C27 36.1929 38.1929 25 52 25H89.1667C100.673 25 110 34.3274 110 45.8333V45.8333C110 48.1345 108.135 50 105.833 50H27V50Z" fill="#90DB5E"/>
<path d="M52 84C38.1929 84 27 72.8071 27 59L27 50C27 36.1929 38.1929 25 52 25V25L52 84V84Z" fill="#90DB5E"/>
<path d="M112 89C112 102.807 100.807 114 87 114L49.8333 114C38.3274 114 29 104.673 29 93.1667V93.1667C29 90.8655 30.8655 89 33.1667 89L112 89V89Z" fill="#90DB5E"/>
<path d="M87 55C100.807 55 112 66.1929 112 80L112 89C112 102.807 100.807 114 87 114V114L87 55V55Z" fill="#90DB5E"/>
</svg>
